<svg xmlns="http://www.w3.org/2000/svg" xmlns:xlink="http://www.w3.org/1999/xlink" viewBox="0 0 406.85 109.45"><defs><style>.cls-1{fill:url(#linear-gradient);}.cls-2{fill:url(#linear-gradient-2);}.cls-3{fill:url(#linear-gradient-3);}.cls-4{fill:#e5f1ff;}</style><linearGradient id="linear-gradient" x1="54.7" y1="38.85" x2="76.14" y2="9" gradientUnits="userSpaceOnUse"><stop offset="0" stop-color="#acbff2"/><stop offset="1" stop-color="#b5d9ff"/></linearGradient><linearGradient id="linear-gradient-2" x1="26.93" y1="76.04" x2="6.64" y2="106.28" xlink:href="#linear-gradient"/><linearGradient id="linear-gradient-3" x1="42.94" y1="8.79" x2="42.94" y2="113.27" gradientUnits="userSpaceOnUse"><stop offset="0" stop-color="#fff"/><stop offset="1" stop-color="#b3d6ff"/></linearGradient></defs><g id="Layer_2" data-name="Layer 2"><g id="_1" data-name="1"><path class="cls-1" d="M60.11,29.78c-13.27-8.6-18.76-12.67-18.33-19.16C42.36,1.73,54.28.28,63.49,4.34a35.65,35.65,0,0,1,12.06,8.3C85,22.43,85.87,32.37,85.87,36.16a28.21,28.21,0,0,1-1.73,10.16C78.5,40.09,67.19,34.37,60.11,29.78Z"/><path class="cls-2" d="M25.76,79.67C39,88.27,44.52,92.34,44.1,98.83c-.59,8.88-12.51,10.34-21.71,6.28a35.82,35.82,0,0,1-12.07-8.3C.84,87,0,77.07,0,73.28A28.37,28.37,0,0,1,1.73,63.13C7.37,69.35,18.68,75.08,25.76,79.67Z"/><path class="cls-3" d="M79.78,54.72a31.87,31.87,0,0,1,6.08,18.56c0,20-19.22,36.17-42.92,36.17C47,107.92,51.69,104.12,52,98.3c.56-9.52-7.9-17-31.46-31.26-5.7-3.46-10.9-7.29-14.48-12.32A31.88,31.88,0,0,1,0,36.16C0,16.19,19.23,0,42.94,0c-4.09,1.52-8.76,5.33-9.1,11.14-.55,9.53,7.91,17,31.46,31.27C71,45.86,76.21,49.7,79.78,54.72Z"/><path class="cls-4" d="M138.71,48.72c0-2.48,2-3.95,5.7-3.95,4.41,0,7.07,2.3,7.53,5.79h14.52c-1-10.11-8.37-17.46-21.6-17.46C131.45,33.1,124,40.27,124,49c0,18.83,27.93,12.86,27.93,21.13,0,2.29-2.11,4.13-6.16,4.13-4.31,0-7.53-2.39-7.9-6H122.36c.73,9.92,9.92,17.55,23.61,17.55,12.86,0,20.76-6.71,20.76-15.62C166.46,51.11,138.71,56.9,138.71,48.72Z"/><path class="cls-4" d="M201.59,33.1c-15,0-26.65,10.11-26.65,26.37s11.39,26.37,26.46,26.37,26.83-10.11,26.83-26.37S216.65,33.1,201.59,33.1Zm-.19,39.14c-5.69,0-10.47-4.14-10.47-12.77s5-12.77,10.66-12.77c5.51,0,10.65,4,10.65,12.77S207,72.24,201.4,72.24Z"/><rect class="cls-4" x="238.28" y="17.12" width="15.71" height="67.99"/><path class="cls-4" d="M275.65,11.51c-5.61,0-9.37,3.77-9.37,8.55s3.76,8.45,9.37,8.45,9.28-3.77,9.28-8.45S281.16,11.51,275.65,11.51Z"/><rect class="cls-4" x="267.75" y="33.84" width="15.71" height="51.26"/><path class="cls-4" d="M319.88,46.51c4.32,0,6.89,2.3,8.17,5.88h16.73C342.11,40.18,333,33.1,320.15,33.1c-15.06,0-25.72,10.2-25.72,26.37s10.66,26.37,25.72,26.37c12.87,0,22-7.45,24.63-19.3H328.05c-1.37,3.77-3.85,5.88-8.17,5.88-5.61,0-9.46-4.41-9.46-13S314.27,46.51,319.88,46.51Z"/><polygon class="cls-4" points="389.85 33.84 378.09 65.9 366.24 33.84 348.69 33.84 369.55 83.36 357.79 109.45 374.69 109.45 406.85 33.84 389.85 33.84"/></g></g></svg>